HIERARCHY
ROOT Hips
{
	OFFSET 0.000000 0.000000 0.000000
	CHANNELS 6 Xposition Yposition Zposition Xrotation Yrotation Zrotation
	JOINT LeftUpLeg_virtual
	{
		OFFSET 0.000000 0.000000 0.000000
		CHANNELS 3 Xrotation Yrotation Zrotation
		JOINT LeftUpLeg
		{
			OFFSET 15.427100 -6.655098 0.678600
			CHANNELS 3 Xrotation Yrotation Zrotation
			JOINT LeftLeg
			{
				OFFSET 4.081073 -39.591068 13.024000
				CHANNELS 3 Xrotation Yrotation Zrotation
				JOINT LeftFoot
				{
					OFFSET -4.081074 -37.707932 -15.979700
					CHANNELS 3 Xrotation Yrotation Zrotation
					JOINT LeftToeBase
					{
						OFFSET 5.346399 -15.068900 20.645000
						CHANNELS 3 Xrotation Yrotation Zrotation
						JOINT LeftToe_End
						{
							OFFSET 2.754700 0.931300 11.300900
							CHANNELS 3 Xrotation Yrotation Zrotation
							End Site
							{
								OFFSET 0 0 0
							}
						}
					}
				}
			}
		}
	}
	JOINT RightUpLeg_virtual
	{
		OFFSET 0.000000 0.000000 0.000000
		CHANNELS 3 Xrotation Yrotation Zrotation
		JOINT RightUpLeg
		{
			OFFSET -15.569500 -6.655098 0.678600
			CHANNELS 3 Xrotation Yrotation Zrotation
			JOINT RightLeg
			{
				OFFSET -4.081825 -39.591045 13.023800
				CHANNELS 3 Xrotation Yrotation Zrotation
				JOINT RightFoot
				{
					OFFSET 4.081824 -37.707954 -15.979600
					CHANNELS 3 Xrotation Yrotation Zrotation
					JOINT RightToeBase
					{
						OFFSET -5.346400 -15.068900 20.645000
						CHANNELS 3 Xrotation Yrotation Zrotation
						JOINT RightToe_End
						{
							OFFSET -2.754700 0.931300 11.300900
							CHANNELS 3 Xrotation Yrotation Zrotation
							End Site
							{
								OFFSET 0 0 0
							}
						}
					}
				}
			}
		}
	}
	JOINT Spine_virtual
	{
		OFFSET 0.000000 0.000000 0.000000
		CHANNELS 3 Xrotation Yrotation Zrotation
		JOINT Spine
		{
			OFFSET -0.279200 12.230698 -2.892100
			CHANNELS 3 Xrotation Yrotation Zrotation
			JOINT Spine1
			{
				OFFSET -0.232667 10.192268 -1.242267
				CHANNELS 3 Xrotation Yrotation Zrotation
				JOINT Spine1_split
				{
					OFFSET -0.232667 10.192268 -1.242267
					CHANNELS 3 Xrotation Yrotation Zrotation
					JOINT Spine2
					{
						OFFSET -0.232667 10.192268 -1.242267
						CHANNELS 3 Xrotation Yrotation Zrotation
						JOINT Neck_virtual
						{
							OFFSET 0.000000 0.000000 0.000000
							CHANNELS 3 Xrotation Yrotation Zrotation
							JOINT Neck
							{
								OFFSET -0.418800 17.814194 8.416900
								CHANNELS 3 Xrotation Yrotation Zrotation
								JOINT Head
								{
									OFFSET 0.000000 7.031097 3.806800
									CHANNELS 3 Xrotation Yrotation Zrotation
									JOINT HeadTop_End
									{
										OFFSET 0.000000 24.646606 12.978600
										CHANNELS 3 Xrotation Yrotation Zrotation
										End Site
										{
											OFFSET 0 0 0
										}
									}
								}
							}
						}
						JOINT LeftShoulder_virtual
						{
							OFFSET 0.000000 0.000000 0.000000
							CHANNELS 3 Xrotation Yrotation Zrotation
							JOINT LeftShoulder
							{
								OFFSET 8.476499 7.247704 -3.868750
								CHANNELS 3 Xrotation Yrotation Zrotation
								JOINT LeftShoulder_split
								{
									OFFSET 8.476499 7.247704 -3.868750
									CHANNELS 3 Xrotation Yrotation Zrotation
									JOINT LeftArm
									{
										OFFSET 9.308998 -2.777710 0.208600
										CHANNELS 3 Xrotation Yrotation Zrotation
										JOINT LeftForeArm
										{
											OFFSET 29.972298 0.000000 0.000000
											CHANNELS 3 Xrotation Yrotation Zrotation
											JOINT LeftHand
											{
												OFFSET 26.026505 0.000000 0.000000
												CHANNELS 3 Xrotation Yrotation Zrotation
												End Site
												{
													OFFSET 0 0 0
												}
											}
										}
									}
								}
							}
						}
						JOINT RightShoulder_virtual
						{
							OFFSET 0.000000 0.000000 0.000000
							CHANNELS 3 Xrotation Yrotation Zrotation
							JOINT RightShoulder
							{
								OFFSET -7.570500 7.247704 -3.868750
								CHANNELS 3 Xrotation Yrotation Zrotation
								JOINT RightShoulder_split
								{
									OFFSET -7.570500 7.247704 -3.868750
									CHANNELS 3 Xrotation Yrotation Zrotation
									JOINT RightArm
									{
										OFFSET -9.308998 -2.777710 0.208500
										CHANNELS 3 Xrotation Yrotation Zrotation
										JOINT RightForeArm
										{
											OFFSET -29.972300 0.000000 0.000000
											CHANNELS 3 Xrotation Yrotation Zrotation
											JOINT RightHand
											{
												OFFSET -26.026505 0.000000 0.000000
												CHANNELS 3 Xrotation Yrotation Zrotation
												End Site
												{
													OFFSET 0 0 0
												}
											}
										}
									}
								}
							}
						}
					}
				}
			}
		}
	}
}
MOTION
Frames: 4
Frame Time: 0.03333333
18.052023 75.395279 -18.483980 0.000000 0.000000 0.000000 55.026302 -4.842274 15.040107 -84.244407 4.693955 14.982570 48.820942 -4.767858 -0.116191 -8.746398 19.140244 -14.826280 -5.361961 -0.963703 -2.850197 0.000000 0.000000 0.000000 56.457292 -8.665922 16.117343 -42.894360 -1.387898 -16.125426 52.148867 11.126191 -0.386499 -16.936077 -25.755115 9.264454 -34.511686 8.419497 1.523028 0.000000 0.000000 0.000000 58.944396 -3.421573 15.235145 13.614292 0.957486 -0.076012 11.563253 0.178929 -2.974751 0.183133 0.162099 -0.011245 0.000000 0.000000 0.000000 19.313268 0.874019 -3.523305 -18.195081 -2.270898 0.439517 -71.012234 2.701494 19.750144 0.000000 0.000000 0.000000 18.344409 0.495545 -3.729881 8.349524 -3.659235 3.828425 0.135247 -3.994368 -1.246029 -29.367638 -65.665685 -14.413559 -16.705818 -11.262419 -17.138428 0.000000 0.000000 0.000000 20.977521 1.221997 -2.816293 10.967352 31.808707 -13.588298 -6.281278 -1.158545 5.333568 -49.476606 25.910917 19.575607 -15.148328 27.591061 14.240208 0.000000 0.000000 0.000000 
17.286861 77.430649 -17.687704 0.000000 0.000000 0.000000 52.974182 -4.992410 14.713117 -78.602684 5.164351 14.034635 45.297453 -4.946584 -0.338737 -10.264713 19.638561 -13.676743 -3.118387 -0.913759 -2.939422 0.000000 0.000000 0.000000 54.114137 -8.590915 15.520130 -46.698673 -0.147646 -16.084580 55.615891 10.738691 -0.157936 -19.339271 -23.260491 5.851265 -31.063372 7.864571 1.491872 0.000000 0.000000 0.000000 56.525939 -3.567890 14.661981 13.426464 0.721733 0.246056 11.336387 0.207913 -2.709782 0.185140 0.187000 -0.001117 0.000000 0.000000 0.000000 19.389114 0.912012 -3.268434 -18.419695 -2.488059 0.504867 -69.047864 3.038087 18.944928 0.000000 0.000000 0.000000 18.191227 0.567784 -3.543641 8.154203 -4.214740 2.221211 0.153005 -4.047378 -0.904466 -28.707312 -63.401101 -18.296873 -16.189777 -11.341231 -16.291244 0.000000 0.000000 0.000000 20.993459 1.273819 -2.675071 10.202267 31.436892 -12.537801 -6.730445 -1.065527 5.198622 -47.387053 23.298409 23.315382 -14.529470 26.785533 13.318190 0.000000 0.000000 0.000000 
16.577564 79.269493 -16.921144 0.000000 0.000000 0.000000 50.577537 -5.374203 14.123338 -73.017468 5.459660 13.306313 42.151642 -5.187138 -0.726513 -11.769954 20.075586 -12.882944 -0.872730 -0.858275 -2.871247 0.000000 0.000000 0.000000 51.607349 -8.899573 14.842269 -49.796973 0.518708 -16.323754 56.215845 10.377235 0.289983 -19.477790 -21.133309 4.648287 -27.673898 7.313974 1.167849 0.000000 0.000000 0.000000 53.832867 -3.868156 13.891318 13.173582 0.598620 0.665410 11.160535 0.233612 -2.434193 0.216289 0.217211 0.003640 0.000000 0.000000 0.000000 19.372973 0.952439 -3.019904 -18.550918 -2.711981 0.527142 -66.766615 3.258230 18.012643 0.000000 0.000000 0.000000 18.018056 0.630137 -3.350501 7.926858 -4.764112 0.615994 0.133465 -4.070728 -0.544146 -28.232780 -61.183455 -22.569655 -15.423885 -10.804349 -15.208630 0.000000 0.000000 0.000000 20.948028 1.315882 -2.534514 9.450542 30.948864 -11.506908 -7.161032 -0.768468 5.083767 -44.928510 20.602683 26.517670 -14.107705 25.948056 12.632324 0.000000 0.000000 0.000000 
15.950801 80.928535 -16.147985 0.000000 0.000000 0.000000 47.999680 -5.889659 13.221559 -67.457680 5.693148 12.803192 39.098711 -5.423374 -1.203734 -13.097758 20.406392 -12.236426 0.897551 -0.844441 -2.505340 0.000000 0.000000 0.000000 48.951081 -9.475638 13.919452 -51.637531 0.553685 -16.536533 53.668785 9.911654 0.836901 -18.826706 -19.370427 4.766824 -22.892692 6.928789 0.389825 0.000000 0.000000 0.000000 50.932546 -4.313112 12.927879 12.836020 0.554696 1.175029 11.000251 0.240929 -2.141409 0.245960 0.245212 0.003746 0.000000 0.000000 0.000000 19.247538 0.983099 -2.769099 -18.545089 -2.924266 0.498725 -64.175009 3.315631 16.996408 0.000000 0.000000 0.000000 17.793538 0.670825 -3.131890 7.710771 -5.312570 -0.834628 0.123944 -4.125068 -0.236208 -27.808456 -59.029924 -26.859374 -14.607749 -9.960261 -14.060371 0.000000 0.000000 0.000000 20.814042 1.335610 -2.370464 8.714859 30.397617 -10.456738 -7.675533 -0.408840 5.068091 -42.174250 17.984040 29.134268 -13.854475 25.056757 12.132918 0.000000 0.000000 0.000000 
